# xmcd
#
# Track frame offsets: 
#        150
#        25995
#        52050
#        76762
#        91952
#        100854
#        123802
#        142252
#        158540
#        183685
#        194287
#        218635
#        230582
#        248235
#        262335
#
# Disc length: 3628 seconds
#
# Revision: 1
# Processed by: cddbd v1.5.2PL0 Copyright (c) Steve Scherf et al.
# Submitted via: ExactAudioCopyFreeDBPlugin 1.0
#
DISCID=d20e2a0f
DTITLE=Louisiana Red - Driftin'
DYEAR=1900
DGENRE=blues
TTITLE0=Driftin'
TTITLE1=Hard Hard Time
TTITLE2=Bring Me Some Water
TTITLE3=Leaving Grandma
TTITLE4=In The Garden
TTITLE5=The Day I Met B.B. King
TTITLE6=Keep Your Hands on The Plow
TTITLE7=Lousiana Red - Teddy Bear#Cootie In The Gump Stump
TTITLE8=Getting Weaker Day By Day
TTITLE9=I Met Lightnin' Hopkins
TTITLE10=Chankity Chank Chank
TTITLE11=Baby, You Gonna Miss Me
TTITLE12=Powder Room Blues
TTITLE13=Train Station Blues
TTITLE14=He Will See You Trough
EXTD=
EXTT0=
EXTT1=
EXTT2=
EXTT3=
EXTT4=
EXTT5=
EXTT6=
EXTT7=
EXTT8=
EXTT9=
EXTT10=
EXTT11=
EXTT12=
EXTT13=
EXTT14=
PLAYORDER=
